<svg width="32" height="32" viewBox="0 0 32 32" fill="none" xmlns="http://www.w3.org/2000/svg">
<path d="M5 18.5867V29.5867H13V21.5867C13 21.0562 13.2107 20.5475 13.5858 20.1725C13.9609 19.7974 14.4696 19.5867 15 19.5867H17C17.5304 19.5867 18.0391 19.7974 18.4142 20.1725C18.7893 20.5475 19 21.0562 19 21.5867V29.5867H27V18.5867" stroke="black" stroke-width="1.5" stroke-linecap="round" stroke-linejoin="round"/>
<path d="M1 16.5867L14.5867 3.00003C14.7715 2.81297 14.9915 2.66446 15.2341 2.5631C15.4767 2.46174 15.7371 2.40955 16 2.40955C16.2629 2.40955 16.5233 2.46174 16.7659 2.5631C17.0085 2.66446 17.2286 2.81297 17.4133 3.00003L31 16.5867" stroke="black" stroke-width="1.5" stroke-linecap="round" stroke-linejoin="round"/>
<path d="M22 7.58669V3.69336H27V12.5867" stroke="black" stroke-width="1.5" stroke-linecap="round" stroke-linejoin="round"/>
</svg>
