<svg width="32" height="32" viewBox="0 0 32 32" fill="none" xmlns="http://www.w3.org/2000/svg">
<g clip-path="url(#clip0_18_20)">
<path d="M10 24.6667H4C3.20435 24.6667 2.44129 24.9828 1.87868 25.5454C1.31607 26.108 1 26.871 1 27.6667C1 28.4623 1.31607 29.2254 1.87868 29.788C2.44129 30.3506 3.20435 30.6667 4 30.6667H10C10.7956 30.6667 11.5587 30.3506 12.1213 29.788C12.6839 29.2254 13 28.4623 13 27.6667C13 26.871 12.6839 26.108 12.1213 25.5454C11.5587 24.9828 10.7956 24.6667 10 24.6667Z" stroke="black" stroke-width="1.5" stroke-linecap="round" stroke-linejoin="round"/>
<path d="M22 24.6667H16C15.2044 24.6667 14.4413 24.9828 13.8787 25.5454C13.3161 26.108 13 26.871 13 27.6667C13 28.4623 13.3161 29.2254 13.8787 29.788C14.4413 30.3506 15.2044 30.6667 16 30.6667H22C22.7956 30.6667 23.5587 30.3506 24.1213 29.788C24.6839 29.2254 25 28.4623 25 27.6667C25 26.871 24.6839 26.108 24.1213 25.5454C23.5587 24.9828 22.7956 24.6667 22 24.6667Z" stroke="black" stroke-width="1.5" stroke-linecap="round" stroke-linejoin="round"/>
<path d="M18 18.6667H12C11.2044 18.6667 10.4413 18.9828 9.87868 19.5454C9.31607 20.108 9 20.871 9 21.6667C9 22.4623 9.31607 23.2254 9.87868 23.788C10.4413 24.3506 11.2044 24.6667 12 24.6667H18C18.7956 24.6667 19.5587 24.3506 20.1213 23.788C20.6839 23.2254 21 22.4623 21 21.6667C21 20.871 20.6839 20.108 20.1213 19.5454C19.5587 18.9828 18.7956 18.6667 18 18.6667Z" stroke="black" stroke-width="1.5" stroke-linecap="round" stroke-linejoin="round"/>
<path d="M12 18.6667H8.236C7.86452 18.6668 7.50035 18.5634 7.18431 18.3682C6.86827 18.173 6.61284 17.8936 6.44667 17.5614L5 14.6667H16" stroke="black" stroke-width="1.5" stroke-linecap="round" stroke-linejoin="round"/>
<path d="M1 12.6667V14.6667H5" stroke="black" stroke-width="1.5" stroke-linecap="round" stroke-linejoin="round"/>
<path d="M28.9 8.66669C29.0475 9.39287 29.0317 10.1427 28.8538 10.8621C28.6759 11.5814 28.3403 12.2522 27.8714 12.8259C27.4024 13.3997 26.8118 13.862 26.1423 14.1795C25.4727 14.497 24.741 14.6617 24 14.6617C23.259 14.6617 22.5273 14.497 21.8577 14.1795C21.1882 13.862 20.5976 13.3997 20.1286 12.8259C19.6597 12.2522 19.3241 11.5814 19.1462 10.8621C18.9683 10.1427 18.9525 9.39287 19.1 8.66669" stroke="black" stroke-width="1.5" stroke-linecap="round" stroke-linejoin="round"/>
<path d="M31 8.66669C31 6.81017 30.2625 5.02969 28.9497 3.71694C27.637 2.40418 25.8565 1.66669 24 1.66669C22.1435 1.66669 20.363 2.40418 19.0503 3.71694C17.7375 5.02969 17 6.81017 17 8.66669H31Z" stroke="black" stroke-width="1.5" stroke-linecap="round" stroke-linejoin="round"/>
<path d="M24 14.6667C25.8564 14.667 27.6367 15.4047 28.9494 16.7173C30.262 18.03 30.9996 19.8103 31 21.6667V30.6667" stroke="black" stroke-width="1.5" stroke-linecap="round" stroke-linejoin="round"/>
</g>
<defs>
<clipPath id="clip0_18_20">
<rect width="32" height="32" fill="white"/>
</clipPath>
</defs>
</svg>
