<svg width="32" height="32" viewBox="0 0 32 32" fill="none" xmlns="http://www.w3.org/2000/svg">
<g clip-path="url(#clip0_18_34)">
<path d="M7.936 29.5333L5.65866 29.9893L1.20667 7.76399L18.2027 4.35999L19.4827 10.7493" stroke="black" stroke-width="1.5" stroke-linecap="round" stroke-linejoin="round"/>
<path d="M13.24 10.0387L15.964 9.49335" stroke="black" stroke-width="1.5" stroke-linecap="round" stroke-linejoin="round"/>
<path d="M6.00366 11.1854L9.7166 10.4418L10.4602 14.1547L6.74726 14.8983L6.00366 11.1854Z" stroke="black" stroke-width="1.5" stroke-linecap="round" stroke-linejoin="round"/>
<path d="M6.40399 6.72266L6.60933 1.34399L23.9307 2.00533L23.5813 11.14" stroke="black" stroke-width="1.5" stroke-linecap="round" stroke-linejoin="round"/>
<path d="M12.88 17.636H29.46C29.46 17.636 30.7934 17.636 30.7934 18.9693V29.3227C30.7934 29.3227 30.7934 30.656 29.46 30.656H12.88C12.88 30.656 11.5467 30.656 11.5467 29.3227V18.9693C11.5467 18.9693 11.5467 17.636 12.88 17.636Z" stroke="black" stroke-width="1.5" stroke-linecap="round" stroke-linejoin="round"/>
<path d="M11.5467 23.296H30.7934" stroke="black" stroke-width="1.5" stroke-linecap="round" stroke-linejoin="round"/>
<path d="M21.1693 22.164V24.9947" stroke="black" stroke-width="1.5" stroke-linecap="round" stroke-linejoin="round"/>
<path d="M19.1066 14.656H23.2333C23.5869 14.656 23.9261 14.7965 24.1761 15.0465C24.4262 15.2966 24.5667 15.6357 24.5667 15.9893V17.636H17.7733V15.9893C17.7733 15.8142 17.8078 15.6409 17.8748 15.4791C17.9418 15.3173 18.04 15.1703 18.1638 15.0465C18.2877 14.9227 18.4346 14.8245 18.5964 14.7575C18.7582 14.6905 18.9316 14.656 19.1066 14.656Z" stroke="black" stroke-width="1.5" stroke-linecap="round" stroke-linejoin="round"/>
</g>
<defs>
<clipPath id="clip0_18_34">
<rect width="32" height="32" fill="white"/>
</clipPath>
</defs>
</svg>
